# xmcd
#
# Track frame offsets: 
#        150
#        25432
#        38586
#        79367
#        94439
#        132916
#        151290
#        165026
#        188053
#        204644
#        214402
#        235226
#        255186
#        267210
#        281072
#
# Disc length: 3999 seconds
#
# Revision: 0
# Processed by: cddbd v1.5.2PL0 Copyright (c) Steve Scherf et al.
# Submitted via: ExactAudioCopy v0.99pb5
#
DISCID=cc0f9d0f
DTITLE=Various Artist - Renaissance am Rhein
DYEAR=2010
DGENRE=Renaissance
TTITLE0=P.J. de Lattre - Qualis est dilecta mea
TTITLE1=N. Zangius - Tota pulchra es
TTITLE2=A. Pevernage - Salve Regina
TTITLE3=K. Hagius - Oh Herr dein ohr mit gnaden
TTITLE4=M. Pendargent - O Dee cunctiparens
TTITLE5=J. de Cleve - Mirabilia testimonia tua, Domine
TTITLE6=J. de Cleve - Es wel uns Gott genedig sein
TTITLE7=O. di Lasso - O Mors, quam amara
TTITLE8=J. Mangon - In craticula te Deum non negavi
TTITLE9=P.J. de Lattre - Comme la rose
TTITLE10=J. de Castro - Hactemus a longo praestolor
TTITLE11=J. de Castro - Vien doux Hyménée
TTITLE12=N. Zangius - Ein Einfalt zu dem Pfarrherr sprach
TTITLE13=Anonymus - Ein pauer gab sein son ein weib
TTITLE14=P.J. de Latre - Si seulle estois
EXTD=
EXTT0=
EXTT1=
EXTT2=
EXTT3=
EXTT4=
EXTT5=
EXTT6=
EXTT7=
EXTT8=
EXTT9=
EXTT10=
EXTT11=
EXTT12=
EXTT13=
EXTT14=
PLAYORDER=
